<?xml version="1.0" encoding="UTF-8"?>
<!DOCTYPE svg PUBLIC "-//W3C//DTD SVG 1.1//EN" "http://www.w3.org/Graphics/SVG/1.1/DTD/svg11.dtd">
<svg version="1.1" xmlns="http://www.w3.org/2000/svg" xmlns:xlink="http://www.w3.org/1999/xlink" x="0" y="0" width="940" height="807" viewBox="0, 0, 940, 807">
  <defs>
    <clipPath id="Clip_1">
      <path d="M510.216,346.44 L583.628,346.44 L583.628,399.02 L510.216,399.02 z"/>
    </clipPath>
    <radialGradient id="Gradient_1" gradientUnits="userSpaceOnUse" cx="617.826" cy="-257.745" r="45.446" gradientTransform="matrix(1, 0, 0, -1, 0, 0)">
      <stop offset="0" stop-color="#FFB08C"/>
      <stop offset="1" stop-color="#FFAA84" stop-opacity="0"/>
    </radialGradient>
    <clipPath id="Clip_2">
      <path d="M617.839,303.191 C643.325,302.854 662.637,283.108 663.27,257.822 L663.27,257.644 C662.913,232.122 643.084,212.931 617.815,212.299 L617.81,212.299 C592.248,212.641 573.013,232.429 572.38,257.758 C572.387,282.858 592.739,303.198 617.839,303.191 z"/>
    </clipPath>
    <radialGradient id="Gradient_2" gradientUnits="userSpaceOnUse" cx="441.058" cy="-251.349" r="37.497" gradientTransform="matrix(1, 0, 0, -1, 0, 0)">
      <stop offset="0" stop-color="#FFB08C"/>
      <stop offset="1" stop-color="#FFAA84" stop-opacity="0"/>
    </radialGradient>
    <clipPath id="Clip_3">
      <path d="M441.069,288.846 C461.89,288.782 478.042,271.806 478.555,251.341 L478.555,251.335 C478.489,230.513 461.512,214.365 441.047,213.852 C420.338,213.858 403.555,230.651 403.561,251.36 C403.568,272.069 420.36,288.852 441.069,288.846 z"/>
    </clipPath>
  </defs>
  <g id="レイヤー_1">
    <g>
      <path d="M722.309,738.634 L570.835,738.634 C541.079,738.634 516.734,714.288 516.734,684.532 L516.734,501.653 C516.734,471.898 541.079,447.552 570.835,447.552 L722.309,447.552 C752.065,447.552 776.41,471.898 776.41,501.653 L776.41,684.532 C776.41,714.288 752.065,738.634 722.309,738.634" fill="#EC8E25"/>
      <path d="M571.646,638.581 C571.646,634.371 568.233,630.957 564.023,630.957 C559.812,630.957 556.4,634.371 556.4,638.581 C556.4,642.792 559.812,646.205 564.023,646.205 C568.233,646.205 571.646,642.792 571.646,638.581" fill="#886138"/>
      <path d="M571.646,682.798 C571.646,678.587 568.233,675.174 564.023,675.174 C559.812,675.174 556.4,678.587 556.4,682.798 C556.4,687.008 559.812,690.422 564.023,690.422 C568.233,690.422 571.646,687.008 571.646,682.798" fill="#886138"/>
      <path d="M571.392,727.015 C571.392,722.804 567.979,719.391 563.768,719.391 C559.558,719.391 556.145,722.804 556.145,727.015 C556.145,731.225 559.558,734.639 563.768,734.639 C567.979,734.639 571.392,731.225 571.392,727.015" fill="#886138"/>
      <path d="M924.995,712.25 C876.438,678.5 690.868,654.358 469.347,654.358 C247.827,654.358 62.258,678.5 13.701,712.25 L1.5,712.25 L1.5,729.276 C1.5,770.776 211.005,804.418 469.5,804.418 C727.995,804.418 937.5,770.776 937.5,729.276 L937.5,712.25 z" fill="#734B23"/>
      <path d="M510.216,365.806 L518.038,417.874 C518.038,417.874 526.553,580.344 542.627,581.919 C554.361,583.068 572.129,425.414 583.628,417.699 L583.628,347.872 z" fill="#FFD4B3"/>
      <path d="M510.261,441.003 L535.498,606.25 L581.125,471.917 C581.125,471.917 564.151,438.388 540.473,440.617 C540.473,440.617 522.16,443.062 510.261,441.003" fill="#F1F1F1"/>
      <path d="M482.074,425.871 C482.074,425.871 473.101,427.468 470.036,430.077 C463.628,435.533 447.025,446.225 438.148,459.544 C410.088,501.644 360.139,583.749 360.139,583.749 L410.088,606.249 C432.78,571.467 479.3,502.613 479.3,502.613" fill="#262626"/>
      <path d="M515.417,412.586 L525.831,622.196 C525.831,622.196 583.629,420.79 586.872,408.08 L648.853,420.597 C647.47,470.586 652.248,514.98 652.248,561.721 C652.248,592.988 655.596,748.883 655.596,748.883 C655.596,748.883 529.03,774.794 452.712,745.349 C452.712,745.349 451.727,706.072 452.712,646.925 C453.499,599.749 455.825,533.286 458.824,512.453 C464.292,474.471 472.843,428.557 472.843,428.557 z" fill="#323333"/>
      <g clip-path="url(#Clip_1)" opacity="0.46">
        <path d="M510.216,364.375 L514.948,397.449 C524.986,398.511 534.97,399.016 544.195,399.02 C558.134,399.025 570.719,397.747 583.628,395.418 L583.628,346.441 z" fill="#FFB288"/>
      </g>
      <path d="M499.469,424.955 L493.68,479.769 L506.405,489.932 L493.362,502.613 L511.188,606.249" fill-opacity="0" stroke="#181919" stroke-width="3.405" stroke-linecap="round" stroke-linejoin="round"/>
      <path d="M607.372,417.804 L607.372,479.769 L583.629,489.481 L607.372,502.612 L545.693,606.249" fill-opacity="0" stroke="#181919" stroke-width="3.405" stroke-linecap="round" stroke-linejoin="round"/>
      <path d="M514.557,404.989 L511.188,415.042 L518.57,460.87 L540.473,440.617 z" fill="#FFFFFF"/>
      <path d="M585.192,400.691 L540.473,440.617 L567.921,468.887 L589.786,407.646 z" fill="#FFFFFF"/>
      <path d="M467.476,44.848 C467.476,44.848 398.525,100.188 394.671,219.282 C390.126,359.748 486.533,383.448 561.474,383.427 C643.847,383.403 703.107,306.485 718.695,254.085 C740.687,180.154 707.597,-52.163 467.476,44.848" fill="#FFD4B3"/>
      <path d="M481.822,215.996 C482.342,205.598 477.344,196.898 470.66,196.565 C463.975,196.231 458.135,204.389 457.616,214.787 C457.097,225.185 462.094,233.885 468.778,234.218 C475.463,234.553 481.302,226.394 481.822,215.996" fill="#734B23"/>
      <path d="M587.958,222.905 C588.63,212.516 583.761,203.744 577.083,203.312 C570.405,202.879 564.445,210.95 563.772,221.339 C563.099,231.728 567.968,240.5 574.647,240.933 C581.325,241.366 587.285,233.294 587.958,222.905" fill="#734B23"/>
      <path d="M583.18,162.019 C583.18,162.019 592.353,147.03 609.069,165.262" fill-opacity="0" stroke="#734B23" stroke-width="3.405" stroke-linecap="round" stroke-linejoin="round"/>
      <path d="M503.206,240.971 C503.206,240.971 485.601,250.024 503.212,258.281" fill-opacity="0" stroke="#FFB288" stroke-width="3.405" stroke-linecap="round" stroke-linejoin="round"/>
      <g clip-path="url(#Clip_2)" opacity="0.48">
        <path d="M617.839,303.191 C643.325,302.854 662.637,283.108 663.27,257.822 L663.27,257.644 C662.913,232.12 643.083,212.931 617.813,212.298 C592.713,212.306 572.372,232.659 572.38,257.758 C572.387,282.858 592.739,303.198 617.839,303.191 z" fill="url(#Gradient_1)"/>
      </g>
      <g clip-path="url(#Clip_3)" opacity="0.48">
        <path d="M441.069,288.846 C461.777,288.84 478.561,272.047 478.555,251.338 C478.548,230.629 461.755,213.846 441.046,213.852 C420.338,213.858 403.555,230.651 403.561,251.36 C403.567,272.069 420.36,288.852 441.069,288.846 z" fill="url(#Gradient_2)"/>
      </g>
      <path d="M682.217,49.776 C668.54,40.477 654.41,33.194 640.238,27.627 L654.749,27.173 C629.529,19.869 618.48,20.392 618.48,20.392 C612.907,18.862 607.362,17.577 601.867,16.523 C590.39,10.361 575.058,4.202 557.166,2.149 L571.94,12.908 C545.374,11.569 521.364,15.334 503.24,21.905 C491.69,23.182 480.105,25.279 469.345,28.557 L485.435,30.403 C484.947,30.711 484.465,31.022 483.996,31.336 C449.223,54.643 424.032,73.489 409.94,123.228 L479.707,81.791 L457.579,104.437 L553.178,72.768 L531.972,102.892 L598.358,85.401 L571.898,104.437 L623.431,95.742 L677.408,190.337 L706.513,200.627 L700.198,255.685 L728.409,209.058 C728.409,209.058 757.241,100.785 682.217,49.776" fill="#40210D"/>
      <path d="M717.795,213.501 C717.795,213.501 725.283,183.286 746.086,203.659 C766.889,224.032 741.909,291.1 703.316,279.357" fill="#FFD4B3"/>
      <path d="M467.476,44.848 C467.476,44.848 424.887,67.471 410.088,121.942 L459.546,90.17" fill-opacity="0" stroke="#030000" stroke-width="2.294" stroke-linecap="round" stroke-linejoin="round"/>
      <path d="M465.144,65.176 C465.144,65.176 492.535,42.943 552.595,36.803 L506.696,69.942" fill-opacity="0" stroke="#030000" stroke-width="2.294" stroke-linecap="round" stroke-linejoin="round"/>
      <path d="M663.413,107.671 L692.135,155.596 C692.135,155.596 690.381,102.738 666.876,69.114 C666.876,69.114 688.308,86.6 697.181,111.544" fill-opacity="0" stroke="#030000" stroke-width="2.294" stroke-linecap="round" stroke-linejoin="round"/>
      <path d="M523.175,456.611 L531.973,480.006 L520.675,540.313 L525.83,622.207 L549.24,540.109 L544.319,480.691 L559.458,460.171 L540.473,440.617 z" fill="#B7282C"/>
      <path d="M499.469,292.522 C499.469,292.522 522.536,315.367 546.287,292.522" fill-opacity="0" stroke="#DD2326" stroke-width="4.255" stroke-linecap="round" stroke-linejoin="round"/>
      <path d="M531.972,665.175 C531.972,660.317 528.034,656.378 523.175,656.378 C518.316,656.378 514.378,660.317 514.378,665.175 C514.378,670.034 518.316,673.973 523.175,673.973 C528.034,673.973 531.972,670.034 531.972,665.175" fill="#181919"/>
      <path d="M531.972,728.543 C531.972,723.684 528.034,719.745 523.175,719.745 C518.316,719.745 514.378,723.684 514.378,728.543 C514.378,733.401 518.316,737.34 523.175,737.34 C528.034,737.34 531.972,733.401 531.972,728.543" fill="#181919"/>
      <path d="M937.394,712.026 C937.394,670.527 727.843,636.885 469.348,636.885 C210.852,636.885 1.301,670.527 1.301,712.026 C1.301,753.526 210.852,787.168 469.348,787.168 C727.843,787.168 937.394,753.526 937.394,712.026" fill="#886138"/>
      <path d="M183.364,707.011 L302.467,661.234 L587.563,685.096 C596.887,685.851 598.676,698.746 589.909,702.009 L484.994,741.057 z" fill="#989898"/>
      <path d="M193.162,713.949 L484.994,741.057" fill-opacity="0" stroke="#CBCBCB" stroke-width="6.75" stroke-linecap="round" stroke-linejoin="round"/>
      <path d="M623.623,620 L560.866,638 C560.866,638 542.657,632 527.765,633.962 C505.875,636.846 489,656 489,656 C489,656 467.003,686.63 481.002,678.065 C495,669.5 503.008,662.617 503.008,662.617 L522.66,649.788 C522.66,649.788 506.516,664.017 503.008,680.259 L499.5,696.5 C499.5,696.5 502.599,705.396 508.55,695.698 C508.55,695.698 512.807,708.799 522.654,696.65 C532.5,684.5 542.657,676.271 542.657,676.271 C542.657,676.271 518.505,705.163 531.521,700.318 C544.537,695.474 569.838,682.314 572.919,660.906 L646.572,647.169 z" fill="#FFD4B3"/>
      <path d="M484.994,741.057 L193.109,712.486 C187.453,712.692 182.651,708.052 182.437,702.177 L135.95,524.101 C135.768,523.003 135.712,521.877 135.888,520.779 C136.563,516.582 139.624,513.166 143.606,512.166 C144.636,511.907 145.709,511.882 146.766,511.985 L440.308,534.109 C445.964,533.903 450.766,538.543 450.98,544.418 L494.889,730 C495.102,735.876 490.65,740.851 484.994,741.057" fill="#B2B2B2"/>
      <path d="M584.001,630.651 L567.018,634.632 L579.845,666.921 L598.034,662.436" fill="#F1F1F1"/>
      <path d="M646.572,420.932 C646.572,420.932 678.75,419.432 702.068,491 C711.691,520.538 732.011,581.444 741.117,626.493 C747.75,659.306 593.009,666.686 593.009,666.686 L576.237,630.719 L675.726,608.756 L649.73,518.341 z" fill="#323333"/>
      <path d="M649.73,518.341 L675.722,609.377 L591.584,627.965" fill-opacity="0" stroke="#181919" stroke-width="3" stroke-linecap="round" stroke-linejoin="round"/>
    </g>
  </g>
</svg>
